<?xml version="1.0" encoding="iso-8859-1"?>
<!-- Generator: Adobe Illustrator 19.0.0, SVG Export Plug-In . SVG Version: 6.00 Build 0)  -->
<svg version="1.1" id="Layer_1" xmlns="http://www.w3.org/2000/svg" xmlns:xlink="http://www.w3.org/1999/xlink" x="0px" y="0px"
	 viewBox="0 0 503.607 503.607" style="enable-background:new 0 0 503.607 503.607;" xml:space="preserve">
<g transform="translate(1 1)">
	<path style="fill:#FFFFFF;" d="M450.567,291.931c-0.839,0-1.679,0-2.518,0c-15.948,0-29.377-13.43-29.377-29.377
		c0-12.59,7.554-22.662,18.466-26.859c-15.948-42.807-46.164-74.702-84.774-94.846l0,0c-5.036,13.43-13.43,24.341-23.502,34.413
		c-39.449-20.984-87.292-18.466-124.223,5.875c-15.108-11.751-26.859-27.698-32.734-46.164c0-0.839-0.839-0.839-0.839-1.679
		c-11.751,3.357-22.662,7.554-29.377,10.072c-35.252-14.269-59.593-20.144-81.416-18.466c-3.357,0-3.357,4.197-0.839,5.875
		c19.305,9.233,22.662,34.413,31.895,52.879c-25.18,24.341-27.698,42.807-32.734,74.702H40.967
		c-24.341,0-33.574,19.305-33.574,43.646v30.216c0,24.341,9.233,43.646,33.574,43.646h10.911
		c25.18,73.023,113.311,111.633,204.8,111.633c112.472,0,195.567-64.63,195.567-161.993
		C452.246,313.754,451.407,302.843,450.567,291.931L450.567,291.931z"/>
	<g>
		<path style="fill:#0096E6;" d="M257.518,495.892c-102.4,0-184.656-43.646-211.515-111.633h-5.036
			C14.948,384.259-1,364.954-1,332.22v-30.216c0-32.734,15.948-52.039,41.967-52.039h10.911
			c4.197-26.859,7.554-45.325,30.216-67.987c-1.679-3.357-2.518-6.715-4.197-10.911c-5.036-14.269-10.072-27.698-20.984-32.734
			c-5.036-2.518-7.554-7.554-6.715-12.59c0.839-5.036,5.036-8.393,10.072-9.233c20.984-2.518,45.325,2.518,82.256,17.626
			c6.715-2.518,16.787-5.875,26.859-9.233l7.554-2.518l3.357,8.393c5.036,15.108,13.43,28.538,25.18,38.61
			c36.931-21.823,83.095-23.502,121.705-5.036c7.554-7.554,13.429-16.787,17.626-26.859l2.518-6.715l9.233,2.518
			c41.967,21.823,72.184,56.236,88.131,99.043l2.518,7.554l-7.554,3.357c-8.393,3.357-13.43,10.911-13.43,19.305
			c0,11.751,9.233,20.984,20.984,20.984c0.839,0,0.839,0,1.679,0l8.393-0.839l0.839,8.393c1.679,11.751,1.679,23.502,1.679,34.413
			C460.639,426.226,377.544,495.892,257.518,495.892z M40.967,266.751c-20.984,0-25.18,19.305-25.18,35.252v30.216
			c0,15.948,4.197,35.252,25.18,35.252h16.787l1.679,5.875c21.823,63.79,100.721,105.757,197.246,105.757
			c109.954,0,187.174-62.951,187.174-153.6c0-8.393,0-16.787-0.839-25.18c-18.466-2.518-32.734-18.466-32.734-37.77
			c0-12.59,5.875-24.341,15.948-31.056c-14.269-33.574-37.77-60.433-70.505-78.898c-5.875,10.911-13.43,20.144-21.823,28.538
			l-4.197,4.197l-5.036-2.518c-36.931-19.305-81.416-17.626-115.829,5.036l-5.036,3.357l-5.036-3.357
			c-15.108-11.751-26.02-26.859-32.734-43.646c-8.393,2.518-15.948,5.875-20.984,7.554l-3.357,1.679l-3.357-1.679
			c-26.859-10.911-46.164-16.787-62.111-17.626c8.393,9.233,12.59,20.984,16.787,31.895c1.679,5.036,3.357,10.072,5.875,15.108
			l2.518,5.036l-4.197,4.197c-23.502,21.823-25.18,37.771-30.216,68.826l-0.839,7.554H40.967z"/>
		<path style="fill:#0096E6;" d="M120.705,275.144c-15.948,0-29.377-13.43-29.377-29.377c0-15.948,13.43-29.377,29.377-29.377
			s29.377,13.43,29.377,29.377C150.082,261.715,137.492,275.144,120.705,275.144z M120.705,233.177
			c-6.715,0-12.59,5.875-12.59,12.59c0,6.715,5.875,12.59,12.59,12.59c6.715,0,12.59-5.875,12.59-12.59
			C133.295,239.052,127.42,233.177,120.705,233.177z"/>
		<path style="fill:#0096E6;" d="M452.246,325.505c-5.036,0-8.393-3.357-8.393-8.393c0-5.036,3.357-8.393,8.393-8.393
			c18.466,0,33.574-15.108,33.574-33.574c0-5.036,3.357-8.393,8.393-8.393c5.036,0,8.393,3.357,8.393,8.393
			C502.607,302.843,479.944,325.505,452.246,325.505z"/>
		<path style="fill:#0096E6;" d="M494.213,283.538c-5.036,0-8.393-3.357-8.393-8.393c0-18.466-15.108-33.574-33.574-33.574
			c-5.036,0-8.393-3.357-8.393-8.393c0-5.036,3.357-8.393,8.393-8.393c27.698,0,50.361,22.662,50.361,50.361
			C502.607,280.18,499.249,283.538,494.213,283.538z"/>
	</g>
	<g>
		<path style="fill:#FFFFFF;" d="M477.426,262.554c0,15.948-13.429,29.377-29.377,29.377c-15.948,0-29.377-13.43-29.377-29.377
			s13.43-29.377,29.377-29.377C463.997,233.177,477.426,246.607,477.426,262.554L477.426,262.554z"/>
		<path style="fill:#0096E6;" d="M448.049,300.325c-20.984,0-37.77-16.787-37.77-37.77s16.787-37.77,37.77-37.77
			s37.771,16.787,37.771,37.77S469.033,300.325,448.049,300.325z M448.049,241.57c-11.751,0-20.984,9.233-20.984,20.984
			c0,11.751,9.233,20.984,20.984,20.984s20.984-9.233,20.984-20.984S459.8,241.57,448.049,241.57z"/>
	</g>
	<g>
		<path style="fill:#0096E6;" d="M477.426,266.751c-0.839,0-2.518,0-3.357-0.839c-4.197-1.679-5.875-6.715-4.197-10.911
			c5.036-10.911,5.036-23.502,0-34.413c-1.679-4.197,0-9.233,4.197-10.911s9.233,0,10.911,4.197c6.715,15.108,6.715,33.574,0,48.682
			C483.302,264.233,480.784,266.751,477.426,266.751z"/>
		<path style="fill:#0096E6;" d="M359.079,205.479c-2.518,0-4.197-0.839-5.875-2.518c-21.823-21.823-51.2-33.574-81.416-33.574
			c-30.216,0-59.593,11.751-81.416,33.574c-3.357,3.357-8.393,3.357-11.751,0c-3.357-3.357-3.357-8.393,0-11.751
			c25.18-25.18,57.915-38.61,93.167-38.61s68.826,13.43,93.167,38.61c3.357,3.357,3.357,8.393,0,11.751
			C363.275,204.639,360.757,205.479,359.079,205.479z"/>
	</g>
	<g>
		<path style="fill:#D0E8F9;" d="M204.639,180.298c37.77-24.341,85.613-26.02,124.223-5.875
			c19.305-17.626,31.056-42.807,31.056-70.505c0-53.718-42.807-96.525-96.525-96.525s-96.525,42.807-96.525,96.525
			C166.869,134.974,181.977,162.672,204.639,180.298L204.639,180.298z"/>
		<path style="fill:#0096E6;" d="M203.8,190.37l-5.036-3.357c-26.02-20.144-41.128-50.361-41.128-83.095
			C158.475,46.003,205.479-1,263.393-1s104.918,47.003,104.918,104.918c0,29.377-12.59,57.075-33.574,77.22l-4.197,4.197
			l-5.036-2.518c-36.931-19.305-81.416-17.626-115.829,5.036L203.8,190.37z M263.393,15.787c-48.682,0-88.131,39.449-88.131,88.131
			c0,25.18,10.911,49.521,30.216,66.308c36.931-21.823,83.095-23.502,121.705-5.036c15.948-16.787,24.341-37.77,24.341-60.433
			C351.525,55.236,312.075,15.787,263.393,15.787z"/>
	</g>
	<path style="fill:#0096E6;" d="M225.623,157.636c-1.679,0-3.357-0.839-5.036-1.679c-17.626-13.43-27.698-33.574-27.698-55.397
		c0-38.61,31.895-70.505,70.505-70.505s70.505,31.895,70.505,70.505c0,19.305-8.393,38.61-22.662,51.2
		c-3.357,3.357-8.393,3.357-11.751-0.839c-3.357-3.357-3.357-8.393,0.839-11.751c10.911-10.072,17.626-24.341,17.626-39.449
		c0-29.377-24.341-53.718-53.718-53.718c-29.377,0-53.718,24.341-53.718,53.718c0,16.787,7.554,31.895,20.984,41.967
		c3.357,2.518,4.197,8.393,1.679,11.751C230.659,156.797,228.141,157.636,225.623,157.636z"/>
	<path style="fill:#FFFFFF;" d="M416.154,423.708c-20.144,23.502-47.843,41.128-81.416,52.039l2.518,8.393
		c1.679,5.875,7.554,10.072,13.429,10.072h50.361c19.305,0,32.734-19.305,26.859-37.771L416.154,423.708L416.154,423.708z"/>
	<path style="fill:#0096E6;" d="M401.046,502.607h-50.361c-10.072,0-18.466-6.715-20.984-15.948l-5.036-15.948l7.554-2.518
		c31.895-10.072,58.754-26.859,78.059-49.521l9.233-10.911l15.948,46.164c4.197,11.751,2.518,23.502-5.036,33.574
		S413.636,502.607,401.046,502.607z M345.649,481.623L345.649,481.623c0.839,2.518,3.357,4.197,5.036,4.197h50.361
		c6.715,0,12.59-3.357,15.948-8.393c3.357-5.036,5.036-11.751,2.518-17.626l-6.715-19.305
		C395.17,457.282,371.669,471.551,345.649,481.623z"/>
	<path style="fill:#FFFFFF;" d="M82.934,425.387l-13.43,33.574c-6.715,16.787,5.875,35.252,24.341,35.252h56.236
		c3.357,0,6.715-2.518,8.393-5.875l5.875-15.108C131.616,463.157,103.918,446.37,82.934,425.387L82.934,425.387z"/>
	<g>
		<path style="fill:#0096E6;" d="M150.082,502.607H93.846c-11.751,0-21.823-5.875-28.538-15.108
			c-6.715-9.233-7.554-20.984-3.357-31.895l17.626-45.325l9.233,9.233c19.305,20.144,46.164,36.092,78.059,46.164l8.393,2.518
			l-9.233,23.502C163.511,498.41,156.797,502.607,150.082,502.607z M86.292,439.656l-9.233,22.662
			c-2.518,5.036-1.679,11.751,1.679,15.948c3.357,5.036,8.393,7.554,14.269,7.554h56.236l3.357-7.554
			C126.58,469.033,103.918,455.603,86.292,439.656z"/>
		<path style="fill:#0096E6;" d="M245.767,461.479c-31.056,0-59.593-5.875-88.131-18.466c-4.197-1.679-5.875-6.715-4.197-10.911
			c1.679-4.197,6.715-5.875,10.911-4.197c32.734,14.269,64.63,19.305,102.4,15.948c5.036-0.839,8.393,3.357,9.233,7.554
			c0.839,4.197-3.357,8.393-7.554,9.233C260.875,461.479,253.321,461.479,245.767,461.479z"/>
	</g>
</g>
<g>
</g>
<g>
</g>
<g>
</g>
<g>
</g>
<g>
</g>
<g>
</g>
<g>
</g>
<g>
</g>
<g>
</g>
<g>
</g>
<g>
</g>
<g>
</g>
<g>
</g>
<g>
</g>
<g>
</g>
</svg>
